<?xml version="1.0" standalone="no"?>
<!DOCTYPE svg PUBLIC "-//W3C//DTD SVG 20010904//EN"
 "http://www.w3.org/TR/2001/REC-SVG-20010904/DTD/svg10.dtd">
<svg version="1.0" xmlns="http://www.w3.org/2000/svg"
 width="700.000000pt" height="694.000000pt" viewBox="0 0 700.000000 694.000000"
 preserveAspectRatio="xMidYMid meet">

<g transform="translate(0.000000,694.000000) scale(0.100000,-0.100000)"
fill="#000000" stroke="none">
<path d="M20 3470 l0 -3470 3490 0 3490 0 0 3470 0 3470 -3490 0 -3490 0 0
-3470z m3688 1670 c92 -39 171 -75 176 -80 28 -28 -19 -15 -156 44 -99 42
-156 62 -162 56 -6 -6 -6 -13 0 -19 8 -8 262 -119 307 -134 17 -6 25 -37 9
-37 -4 0 -75 29 -157 64 -89 37 -154 60 -160 55 -15 -14 1 -23 168 -95 89 -38
157 -73 157 -81 0 -17 -14 -16 -53 1 -118 54 -247 106 -262 106 -43 0 4 -30
141 -90 163 -71 174 -77 174 -91 0 -16 -20 -10 -161 51 -135 59 -169 69 -169
51 0 -12 19 -25 70 -46 25 -10 63 -26 85 -36 22 -9 65 -27 95 -40 61 -25 80
-37 80 -50 0 -17 -25 -9 -163 51 -135 59 -167 69 -167 51 0 -16 39 -36 250
-123 61 -25 73 -33 78 -46 8 -25 -32 -11 -243 83 -46 21 -85 28 -85 17 0 -16
19 -26 170 -91 151 -65 165 -73 159 -89 -4 -11 -14 -7 -208 76 -69 29 -106 41
-113 34 -14 -14 12 -28 176 -98 124 -53 159 -75 144 -90 -3 -3 -74 25 -157 61
-137 59 -182 71 -165 44 6 -11 36 -25 204 -97 112 -48 115 -50 118 -83 5 -57
10 -64 32 -44 18 17 24 15 145 -36 69 -29 125 -59 125 -66 0 -17 0 -17 -57 8
-94 42 -167 69 -171 64 -14 -14 18 -36 114 -77 103 -43 109 -48 112 -77 2 -17
-1 -31 -7 -31 -6 0 -56 20 -112 45 -56 25 -105 43 -108 40 -14 -15 23 -40 122
-82 106 -45 107 -45 107 -79 l0 -34 -57 26 c-32 14 -71 31 -88 36 -16 6 -34
15 -39 19 -15 14 -46 10 -46 -5 0 -8 47 -34 115 -62 113 -48 115 -50 115 -81
0 -18 -2 -33 -5 -33 -2 0 -50 20 -106 45 -112 50 -122 52 -117 29 2 -9 48 -35
113 -63 105 -45 110 -48 113 -79 2 -18 0 -32 -3 -32 -4 0 -54 21 -112 46 -58
25 -107 43 -110 40 -16 -15 16 -37 116 -81 104 -45 111 -49 111 -76 0 -16 -5
-29 -11 -29 -6 0 -52 18 -101 40 -97 43 -118 48 -118 27 0 -7 52 -35 115 -61
114 -48 115 -49 115 -83 l0 -33 -32 14 c-18 8 -65 28 -105 45 -85 36 -97 38
-90 11 3 -13 0 -20 -9 -20 -12 0 -14 54 -14 336 0 298 -2 335 -15 324 -13 -11
-15 -62 -17 -334 l-3 -321 -2 308 c-3 258 -6 307 -18 307 -7 0 -21 -10 -29
-22 -13 -19 -16 -63 -18 -253 l-2 -230 -6 229 c-5 219 -6 229 -22 212 -10 -10
-18 -24 -18 -32 0 -8 -5 -12 -10 -9 -6 4 -17 1 -25 -5 -12 -10 -15 -52 -15
-230 0 -184 -2 -219 -15 -224 -8 -3 -15 -17 -15 -31 0 -21 -5 -25 -29 -25 -16
0 -34 7 -41 15 -8 9 -29 15 -55 15 -30 0 -45 5 -49 16 -3 9 -6 321 -6 695 0
373 -4 679 -8 679 -31 0 -32 -26 -32 -676 0 -425 -3 -655 -10 -659 -7 -4 -10
209 -10 633 0 351 -3 642 -7 645 -3 4 -19 -7 -35 -23 l-28 -30 -2 -332 -3
-333 -2 310 c-2 171 -5 316 -8 323 -4 10 -10 9 -30 -4 l-25 -17 6 -560 c6
-480 5 -559 -7 -555 -8 2 -15 19 -17 36 -2 18 -7 32 -13 32 -5 0 -9 130 -9
325 0 210 -4 325 -10 325 -6 0 -10 -115 -10 -325 l0 -325 -45 0 c-45 0 -45 0
-45 -35 l0 -35 -65 0 -65 0 0 401 c0 376 -1 400 -17 397 -17 -3 -18 -31 -21
-401 -1 -259 -6 -396 -12 -392 -6 4 -10 145 -10 382 l0 375 -22 -14 c-23 -15
-23 -17 -26 -297 -1 -176 -6 -281 -12 -281 -6 0 -10 98 -10 267 l0 266 -25
-23 -25 -23 -2 -361 -3 -361 -2 353 c-2 193 -7 352 -11 352 -30 0 -32 -29 -32
-381 0 -197 -3 -364 -6 -373 -19 -49 -24 30 -24 364 l0 369 23 23 c19 20 157
143 213 191 21 17 24 17 99 -18 43 -19 84 -35 91 -35 11 0 14 28 14 143 l0
144 148 131 c81 72 151 131 155 132 5 0 83 -32 175 -70z m-428 -1255 l0 -35
63 0 c60 0 65 -2 102 -40 l39 -40 -31 0 c-25 0 -43 -14 -109 -86 -43 -47 -80
-90 -82 -95 -2 -5 13 -9 34 -9 30 0 46 -8 76 -37 21 -20 38 -41 38 -45 0 -4
-44 -8 -97 -8 l-98 -1 -137 143 -137 143 -144 -143 c-127 -127 -147 -143 -173
-140 -28 3 -21 11 145 181 l175 178 115 -3 116 -3 5 -35 c3 -24 11 -36 24 -38
17 -4 18 2 14 72 l-3 76 32 0 c31 0 33 -2 33 -35z m530 -175 c0 -38 4 -70 8
-70 15 0 32 24 32 47 0 23 2 23 114 23 l114 0 153 -161 c85 -88 156 -165 157
-170 2 -5 -7 -9 -20 -9 -16 0 -63 40 -161 138 l-138 137 -132 -138 -132 -137
-247 0 c-137 0 -248 4 -248 8 0 4 15 22 33 40 l32 32 180 2 180 3 5 65 c4 57
8 65 28 70 21 5 19 9 -33 60 l-56 55 33 5 c29 4 33 9 36 38 3 28 7 32 33 32
l29 0 0 -70z m-137 -30 c50 -51 57 -62 48 -79 -6 -11 -11 -40 -11 -65 0 -25
-4 -46 -10 -46 -6 0 -10 31 -10 74 0 71 -1 76 -35 110 -19 20 -38 36 -43 36
-4 0 -30 -22 -57 -50 l-49 -50 -88 0 c-48 0 -88 3 -88 6 0 3 24 32 52 65 l52
59 91 0 90 0 58 -60z m-683 -80 l0 -50 -50 0 -50 0 0 50 0 50 50 0 50 0 0 -50z
m640 15 c0 -20 -5 -25 -25 -25 -20 0 -25 5 -25 25 0 20 5 25 25 25 20 0 25 -5
25 -25z m430 -115 c0 -13 -7 -20 -20 -20 -19 0 -27 20 -13 33 13 14 33 6 33
-13z m58 -3 c2 -12 -3 -17 -17 -17 -12 0 -21 6 -21 13 0 31 32 34 38 4z m-58
-57 c0 -21 -24 -28 -35 -10 -8 14 3 30 21 30 8 0 14 -9 14 -20z m60 0 c0 -13
-7 -20 -20 -20 -13 0 -20 7 -20 20 0 13 7 20 20 20 13 0 20 -7 20 -20z m-2203
-580 c61 -37 79 -108 43 -168 -26 -42 -73 -62 -145 -62 l-55 0 0 -70 0 -70
-40 0 -40 0 0 195 0 195 103 0 c84 0 108 -4 134 -20z m325 -142 l3 -163 85 -5
c84 -5 85 -5 88 -32 l3 -28 -125 0 -126 0 0 195 0 195 35 0 35 0 2 -162z m559
132 c4 -14 19 -56 34 -95 44 -118 95 -257 95 -262 0 -2 -19 -3 -42 -1 -37 3
-42 6 -53 38 l-12 35 -74 0 -74 0 -9 -37 c-9 -37 -11 -38 -53 -38 l-42 0 28
78 c16 42 48 130 72 195 l43 118 40 -3 c33 -2 41 -7 47 -28z m599 0 l0 -30
-60 0 -60 0 0 -165 0 -165 -40 0 -40 0 0 165 0 165 -60 0 -60 0 0 30 0 30 160
0 160 0 0 -30z m268 -167 l2 -193 -40 0 -40 0 0 196 0 195 38 -3 37 -3 3 -192z
m358 80 c39 -64 75 -118 82 -121 9 -3 12 28 12 117 l0 121 35 0 35 0 0 -195 0
-195 -40 0 -39 0 -71 120 c-39 66 -75 120 -80 120 -6 0 -10 -50 -10 -120 l0
-120 -40 0 -40 0 0 188 c0 104 3 192 7 195 3 4 23 7 43 7 35 0 37 -2 106 -117z
m446 -32 c3 -168 12 -191 73 -191 61 0 70 23 73 191 l3 149 35 0 34 0 0 -159
c0 -147 -2 -160 -22 -186 -40 -51 -124 -69 -192 -41 -18 7 -42 26 -54 41 -20
26 -22 39 -22 186 l0 159 34 0 35 0 3 -149z m566 37 c22 -62 43 -123 46 -135
4 -13 11 -23 16 -23 5 0 12 10 16 23 3 12 25 73 47 135 l39 113 52 -3 51 -3 3
-192 2 -193 -40 0 -39 0 -3 137 -3 136 -49 -136 c-46 -130 -50 -137 -76 -137
-26 0 -30 7 -76 137 l-49 136 -3 -136 -3 -137 -34 0 -35 0 0 195 0 195 49 0
49 0 40 -112z m-3320 -380 c-32 -11 -35 -23 -12 -36 15 -8 15 -10 0 -15 -24
-9 -19 -24 12 -36 27 -10 27 -10 -8 -8 -33 2 -35 4 -38 41 -5 55 2 66 40 65
l33 -1 -27 -10z m195 -38 c4 0 7 11 7 25 0 14 5 25 10 25 6 0 10 -25 10 -55 0
-30 -3 -55 -7 -55 -5 0 -20 14 -35 32 l-27 33 -1 -33 c0 -20 -4 -31 -10 -27
-11 7 -13 64 -3 91 6 15 9 14 28 -9 11 -15 24 -27 28 -27z m204 32 c-10 -10
-17 -35 -17 -55 0 -20 -4 -37 -10 -37 -5 0 -10 20 -10 45 0 31 -5 47 -17 54
-14 8 -9 10 26 11 42 0 43 -1 28 -18z m176 8 c-27 -11 -29 -25 -5 -39 16 -10
16 -10 0 -11 -26 0 -22 -29 5 -40 20 -8 19 -9 -10 -9 l-33 -1 0 55 0 55 33 -1
c29 0 30 -1 10 -9z m193 2 c6 -4 11 -29 10 -55 -1 -44 -2 -47 -15 -28 -17 27
-31 27 -31 1 0 -11 -4 -20 -10 -20 -5 0 -10 25 -10 55 0 50 2 55 23 55 12 0
27 -4 33 -8z m198 -8 c9 -8 16 -19 16 -23 0 -13 -24 -31 -40 -31 -10 0 -22
-10 -28 -22 -9 -20 -11 -14 -11 35 -1 54 0 57 23 57 14 0 32 -7 40 -16z m196
2 c8 -10 9 -20 2 -32 -6 -11 -7 -27 -1 -41 5 -14 5 -23 -1 -23 -5 0 -12 9 -15
20 -8 26 -35 26 -35 -1 0 -11 -4 -17 -10 -14 -11 7 -14 88 -3 98 12 12 50 7
63 -7z m140 -42 c0 -34 -4 -53 -10 -49 -16 10 -10 105 6 105 2 0 4 -25 4 -56z
m174 50 c26 -10 18 -25 -9 -18 -33 8 -32 -9 1 -24 35 -16 30 -56 -7 -60 -17
-2 -29 3 -32 12 -7 18 8 22 18 6 9 -14 25 -13 25 2 0 7 -12 22 -27 34 -24 19
-26 24 -14 38 15 18 21 19 45 10z m187 -3 c-30 -8 -39 -29 -17 -37 15 -6 15
-8 -1 -20 -20 -14 -11 -29 22 -37 11 -3 4 -5 -17 -6 l-38 -1 0 55 0 55 38 -1
c31 -1 33 -2 13 -8z m323 3 c26 -10 18 -23 -11 -21 -23 2 -29 -2 -31 -24 -4
-32 23 -58 41 -40 9 9 9 14 -3 21 -12 8 -10 10 8 10 19 0 23 -5 20 -22 -2 -17
-11 -24 -32 -26 -16 -2 -33 1 -38 6 -14 14 -13 69 2 87 14 17 21 18 44 9z
m205 -12 c6 -11 6 -24 1 -32 -5 -8 -7 -26 -4 -40 l5 -25 -17 23 c-20 27 -34
28 -34 2 0 -11 -4 -20 -10 -20 -5 0 -10 25 -10 55 0 54 0 55 30 55 18 0 33 -7
39 -18z m193 1 c22 -19 24 -66 4 -83 -43 -35 -94 26 -62 75 19 29 33 31 58 8z
m160 -79 c14 -14 28 9 28 46 0 21 5 42 10 45 11 7 14 -63 4 -89 -7 -19 -45
-21 -62 -4 -13 13 -16 80 -4 92 4 4 9 -13 12 -38 3 -25 9 -48 12 -52z m239 80
c16 -20 1 -48 -30 -52 -13 -2 -21 -11 -21 -23 0 -10 -4 -19 -10 -19 -5 0 -10
25 -10 55 0 54 1 55 29 55 16 0 34 -7 42 -16z m279 -39 c0 -24 -4 -47 -10 -50
-6 -4 -10 15 -10 50 0 35 4 54 10 50 6 -3 10 -26 10 -50z m150 30 c16 -30 30
-32 30 -6 0 11 5 23 10 26 6 4 10 -15 10 -49 0 -60 -13 -72 -32 -31 -15 33
-36 32 -41 -2 -2 -16 -5 -2 -6 30 -1 61 8 72 29 32z m224 19 c9 -3 16 -13 16
-22 0 -12 -3 -13 -12 -4 -19 19 -37 14 -44 -13 -8 -33 13 -60 33 -44 15 13 28
6 18 -10 -10 -17 -46 -13 -61 7 -18 23 -17 52 3 74 18 20 23 21 47 12z m-2876
-421 c2 -8 -6 -13 -22 -13 -25 0 -25 -2 -28 -77 -3 -65 -6 -78 -20 -81 -16 -3
-18 6 -18 77 0 80 0 81 -25 81 -25 0 -32 10 -18 24 12 12 126 2 131 -11z m182
7 c13 -8 13 -10 0 -14 -8 -3 -28 -6 -45 -8 -22 -2 -31 -9 -33 -25 -3 -20 1
-23 32 -23 25 0 36 -4 36 -15 0 -10 -11 -15 -35 -15 -30 0 -35 -3 -35 -24 0
-22 5 -25 40 -28 59 -4 49 -23 -15 -26 l-55 -3 0 89 c0 49 3 92 7 95 10 10 86
8 103 -3z m188 -12 c17 -15 15 -58 -5 -80 -9 -10 -30 -18 -50 -18 -31 0 -33
-2 -33 -35 0 -24 -5 -35 -15 -35 -12 0 -15 16 -15 88 0 49 3 92 7 96 10 10 94
-3 111 -16z m507 0 c6 -5 11 -38 12 -74 1 -58 -1 -66 -22 -80 -14 -9 -39 -14
-62 -12 l-38 3 -3 84 c-2 61 1 87 10 93 15 10 88 0 103 -14z m346 -49 c7 -27
18 -49 24 -49 7 0 17 24 24 54 11 50 33 77 45 57 3 -5 -7 -46 -23 -92 -38
-113 -54 -114 -93 -4 -29 82 -30 118 -4 96 8 -7 20 -34 27 -62z m277 54 c2 -9
-9 -13 -37 -13 -37 0 -41 -2 -41 -25 0 -22 4 -25 36 -25 45 0 42 -24 -4 -28
-26 -3 -32 -8 -32 -28 0 -21 4 -24 40 -24 29 0 40 -4 40 -15 0 -13 -11 -15
-57 -13 l-58 3 -3 84 c-2 61 1 87 10 93 19 12 101 5 106 -9z m286 11 c25 -9
19 -22 -11 -26 -28 -3 -28 -4 -31 -81 -2 -56 -6 -77 -15 -74 -7 2 -13 31 -15
76 -2 52 -7 73 -17 76 -51 16 -50 16 -35 25 17 11 100 13 124 4z m108 -39 c3
-27 7 -30 41 -33 36 -3 37 -3 37 32 0 30 4 36 20 36 20 0 21 -5 18 -87 -2 -70
-6 -88 -18 -88 -10 0 -16 12 -18 38 -3 37 -4 38 -40 35 -35 -3 -37 -5 -40 -41
-2 -24 -8 -37 -15 -34 -13 4 -23 148 -12 175 8 22 23 3 27 -33z m292 39 c29
-11 16 -24 -24 -24 -36 0 -40 -2 -40 -25 0 -22 4 -25 36 -25 45 0 42 -24 -4
-28 -26 -3 -32 -8 -32 -28 0 -21 4 -24 40 -24 29 0 40 -4 40 -15 0 -13 -11
-15 -57 -13 l-58 3 -3 84 c-2 61 1 87 10 92 15 10 70 12 92 3z m299 -11 c11
-6 8 -61 -4 -81 -9 -14 -8 -25 5 -50 10 -20 12 -33 6 -37 -15 -9 -37 11 -44
40 -10 38 -44 33 -48 -7 -2 -17 -9 -33 -15 -36 -10 -3 -13 19 -13 86 0 49 3
92 7 96 7 6 90 -2 106 -11z m195 0 c2 -9 -9 -13 -37 -13 -37 0 -41 -2 -41 -25
0 -22 4 -25 36 -25 45 0 42 -24 -4 -28 -26 -3 -32 -8 -32 -28 0 -21 4 -24 40
-24 29 0 40 -4 40 -15 0 -13 -11 -15 -57 -13 l-58 3 -3 84 c-2 61 1 87 10 93
19 12 101 5 106 -9z m390 0 c2 -8 -6 -13 -22 -13 -25 0 -25 -2 -28 -77 -2 -61
-6 -78 -18 -78 -12 0 -16 17 -18 78 -3 74 -4 77 -27 77 -25 0 -32 10 -18 24
12 12 126 2 131 -11z m-3610 -20 c6 -16 20 -53 31 -83 12 -30 21 -58 21 -62 0
-17 -29 -7 -35 12 -9 29 -67 28 -88 -2 -10 -16 -18 -20 -25 -13 -16 16 45 175
68 175 11 0 22 -11 28 -27z m330 15 c31 -31 3 -51 -29 -22 -10 9 -25 14 -34
11 -27 -11 -16 -36 22 -52 42 -18 53 -30 53 -62 0 -26 -27 -43 -66 -43 -30 0
-64 25 -64 47 0 18 27 16 34 -3 4 -10 15 -14 33 -12 43 5 38 26 -11 50 -50 24
-63 46 -46 78 8 15 21 20 53 20 24 0 48 -5 55 -12z m881 -69 c17 -44 31 -85
31 -90 0 -18 -32 -9 -37 11 -8 29 -65 28 -86 -2 -10 -15 -18 -20 -25 -13 -7 7
0 38 20 93 41 109 56 110 97 1z m413 64 c23 -27 30 -71 18 -109 -30 -88 -141
-62 -144 34 -1 58 25 92 73 92 24 0 44 -7 53 -17z m1776 5 c31 -31 3 -51 -29
-22 -10 9 -25 14 -34 11 -28 -11 -15 -36 30 -56 39 -17 45 -24 45 -50 0 -33
-22 -51 -62 -51 -29 0 -68 26 -68 46 0 19 26 18 34 -2 7 -18 57 -16 63 3 3 7
-13 21 -35 32 -55 28 -68 46 -54 76 10 21 19 25 55 25 24 0 48 -5 55 -12z"/>
<path d="M3277 4942 c-14 -15 -17 -42 -17 -160 0 -129 2 -142 19 -152 11 -5
22 -10 25 -10 3 0 6 77 6 170 0 94 -4 170 -8 170 -5 0 -16 -8 -25 -18z"/>
<path d="M3090 4480 c0 -120 4 -190 10 -190 6 0 10 70 10 190 0 120 -4 190
-10 190 -6 0 -10 -70 -10 -190z"/>
<path d="M3162 4368 c2 -180 7 -283 13 -283 6 0 11 103 13 283 2 248 0 282
-13 282 -13 0 -15 -34 -13 -282z"/>
<path d="M1760 2755 l0 -65 50 0 c57 0 90 24 90 65 0 41 -33 65 -90 65 l-50 0
0 -65z"/>
<path d="M2723 2706 c-11 -36 -18 -67 -15 -70 9 -9 80 -7 86 3 6 9 -35 131
-44 131 -3 0 -15 -29 -27 -64z"/>
<path d="M2450 2365 c0 -8 7 -15 15 -15 8 0 15 7 15 15 0 8 -7 15 -15 15 -8 0
-15 -7 -15 -15z"/>
<path d="M2644 2375 c-9 -23 10 -40 25 -22 9 11 8 17 -4 27 -12 10 -16 9 -21
-5z"/>
<path d="M2830 2364 c0 -9 7 -14 17 -12 25 5 28 28 4 28 -12 0 -21 -6 -21 -16z"/>
<path d="M3860 2365 c0 -10 7 -15 18 -13 21 4 19 22 -2 26 -10 2 -16 -3 -16
-13z"/>
<path d="M4057 2374 c-12 -12 -8 -51 7 -63 18 -15 39 9 34 41 -3 22 -27 35
-41 22z"/>
<path d="M4450 2365 c0 -10 7 -15 18 -13 21 4 19 22 -2 26 -10 2 -16 -3 -16
-13z"/>
<path d="M2567 1953 c-4 -3 -7 -17 -7 -30 0 -19 5 -23 30 -23 34 0 49 22 30
45 -13 16 -42 20 -53 8z"/>
<path d="M3080 1935 c0 -20 5 -25 24 -25 27 0 40 22 23 39 -21 21 -47 13 -47
-14z"/>
<path d="M3080 1860 c0 -25 4 -30 25 -30 14 0 28 7 31 15 8 20 -13 45 -37 45
-14 0 -19 -7 -19 -30z"/>
<path d="M4680 1930 c0 -28 3 -31 28 -28 21 2 27 8 27 28 0 20 -6 26 -27 28
-25 3 -28 0 -28 -28z"/>
<path d="M1696 1908 c-9 -35 -8 -38 14 -38 20 0 25 15 14 44 -9 23 -21 20 -28
-6z"/>
<path d="M2892 1913 c-17 -31 -15 -43 8 -43 21 0 24 12 11 45 -8 19 -8 19 -19
-2z"/>
<path d="M3285 1944 c-21 -22 -17 -93 8 -108 28 -18 52 4 55 53 5 63 -27 91
-63 55z"/>
</g>
</svg>
